Coordinates
version=1
nRows=14
nColumns=36
inDegrees=yes

Units are S.I. units (second, meters, Newtons, ...)
If the header above contains a line with 'inDegrees', this indicates whether rotational values are in degrees (yes) or radians (no).

endheader
time	pelvis_tilt	pelvis_list	pelvis_rotation	pelvis_tx	pelvis_ty	pelvis_tz	hip_flexion_r	hip_adduction_r	hip_rotation_r	knee_angle_r	knee_angle_r_beta	ankle_angle_r	subtalar_angle_r	mtp_angle_r	hip_flexion_l	hip_adduction_l	hip_rotation_l	knee_angle_l	knee_angle_l_beta	ankle_angle_l	subtalar_angle_l	mtp_angle_l	lumbar_extension	lumbar_bending	lumbar_rotation	arm_flex_r	arm_add_r	arm_rot_r	elbow_flex_r	pro_sup_r	arm_flex_l	arm_add_l	arm_rot_l	elbow_flex_l	pro_sup_l
      0.00000000	      3.03609023	      0.06148461	     -3.90621570	     -0.97215419	      1.31667640	     -0.11535423	     -4.42539058	     -3.53982943	      6.01695777	      3.44084739	      0.06005412	      7.98785103	    -11.65650442	     -6.58286591	     -4.68937924	      0.47968881	      3.09683603	      1.64984727	      0.02879527	      7.65625006	     -7.48813145	     -6.58286591	    -17.42329434	      0.29973290	      2.59093129	     11.76347592	     -5.51433499	     28.89544816	     24.71108584	     69.86650107	      8.86232160	     -8.31567160	     20.60865076	     25.78286829	     66.14409806
      0.00416670	      3.31654607	     -0.26578218	     -3.84411577	     -0.97344770	      1.31612783	     -0.11445846	     -4.98845254	     -2.99623528	      7.61733267	      3.13697770	      0.05475059	     10.81966737	     -9.88072215	     -6.75051996	     -5.06291024	      0.39424812	      5.25270726	      1.51028703	      0.02635948	      7.42977379	     -9.40722242	     -6.75051996	    -17.65081817	      0.65816250	      3.04495007	     11.84643493	     -5.42777531	     27.41614141	     24.92454251	     70.29985352	      9.16721347	     -7.79286628	     19.42325807	     26.34757048	     66.39558449
      0.00833330	      2.58435668	      0.09290249	     -4.22099084	     -0.97301378	      1.31746048	     -0.11411009	     -4.35083804	     -3.29712108	      7.93315400	      2.54856654	      0.04448088	     11.26031682	    -10.28715888	     -7.17666240	     -4.32232315	      0.76421335	      5.58526612	      1.44915214	      0.02529248	      7.05873946	    -10.49237048	     -7.17666240	    -17.27134579	     -0.10178620	      3.82136487	     11.17578604	     -4.53747069	     20.82442788	     25.42042383	     81.52138489	      9.56792138	     -7.42073260	     16.61271503	     26.09683663	     73.87988911
      0.01250000	      3.44737411	      0.07253311	     -4.33853409	     -0.97324518	      1.32053419	     -0.11390901	     -5.40655074	     -3.40950526	      8.12122462	      2.08811165	      0.03644442	     11.27614397	    -10.22245972	     -7.30410967	     -5.50721011	      0.83385610	      6.31008807	      0.97547956	      0.01702533	      6.53060090	    -11.69202349	     -7.30410967	    -18.61280924	     -0.35660515	      3.97617231	     11.29457042	     -4.23201600	     19.95419040	     25.71926690	     78.29134018	      9.98076378	     -7.36016857	     15.60003557	     26.04259564	     71.90523085
      0.01666670	      3.61515954	      0.03471293	     -4.57129733	     -0.97412290	      1.31837375	     -0.11320566	     -5.58490087	     -3.40393190	      8.55389210	      1.96785270	      0.03434551	     11.06209666	    -10.66939907	     -7.46066237	     -5.81594703	      0.84670343	      6.45943901	      0.78057296	      0.01362357	      6.48254075	    -12.22160448	     -7.46066237	    -19.14652588	     -0.45866053	      4.44533834	     11.01120499	     -3.90974714	     16.50498448	     26.31068790	     87.83910507	     10.08053518	     -7.04672219	     12.68417146	     26.25300148	     80.49897831
      0.02083330	      3.87197068	      0.07259327	     -4.75101925	     -0.97501499	      1.31830936	     -0.11257890	     -5.83822209	     -3.47535131	      8.79322052	      1.91636276	      0.03344684	     10.86122981	    -11.01932742	     -7.48702055	     -6.09784298	      0.92182901	      6.74160809	      0.70319323	      0.01227304	      6.21644766	    -13.02212281	     -7.48702055	    -19.62631804	     -0.57040839	      4.69182006	     11.02940404	     -3.92815452	     16.54845630	     26.68108787	     88.50235237	     10.14985198	     -6.91128221	     11.27200546	     26.54313725	     82.93283116
      0.02500000	      3.86332116	      0.10947997	     -4.90882391	     -0.97634531	      1.31747971	     -0.11211125	     -5.72594386	     -3.51931874	      9.08573459	      1.95066495	      0.03404553	     10.58752655	    -11.56201815	     -7.49710448	     -6.04911850	      0.95391701	      6.96167886	      0.68081495	      0.01188246	      5.96166033	    -13.69607739	     -7.49710448	    -19.74424646	     -0.63889370	      4.93471874	     11.08787234	     -4.07400359	     17.39028058	     26.95734599	     88.80841297	     10.25038476	     -6.84790914	     10.64414445	     26.77591992	     85.38449930
      0.02916670	      3.78790837	      0.17244802	     -4.95826649	     -0.97456502	      1.32024346	     -0.11055724	     -5.66189070	     -3.57794592	      9.22646350	      1.82841592	      0.03191188	     10.14044717	    -11.90246391	     -7.49911295	     -5.97005192	      0.98216124	      7.30196909	      0.61465245	      0.01072771	      5.54444469	    -14.19838691	     -7.49911295	    -19.57415210	     -0.73563235	      5.07924414	     11.09866085	     -4.21184231	     18.50720377	     26.95169455	     88.61425709	     10.25105252	     -6.80383000	     10.26980962	     26.78473745	     87.21128408
      0.03333330	      3.63919145	      0.19652530	     -4.99940651	     -0.97610620	      1.31953883	     -0.11017451	     -5.43325080	     -3.56933627	      9.37889119	      1.77168091	      0.03092167	      9.79604238	    -12.23183091	     -7.49978360	     -5.77390752	      0.98096427	      7.44798750	      0.57694253	      0.01006955	      5.33826421	    -14.48093798	     -7.49978360	    -19.39454625	     -0.77657639	      5.15989356	     11.16248347	     -4.34541014	     19.69893035	     26.91371084	     88.53188601	     10.27928589	     -6.78584803	     10.14030925	     26.75562387	     88.71980445
      0.03750000	      3.57532027	      0.21961737	     -5.02309312	     -0.97607788	      1.31990716	     -0.11048857	     -5.34778251	     -3.59397028	      9.51955824	      1.66110172	      0.02899169	      9.31982770	    -12.67000617	     -7.49994224	     -5.67618757	      0.99619729	      7.65536203	      0.54558004	      0.00952217	      4.95379852	    -14.73400389	     -7.49994224	    -19.30271845	     -0.79167764	      5.23856362	     11.15106424	     -4.48067150	     20.33776807	     26.91609072	     88.92797875	     10.32099922	     -6.74801919	     10.14082686	     26.66894679	     89.84417637
      0.04166670	      3.50318460	      0.22566666	     -5.01655379	     -0.97685506	      1.31733321	     -0.10901370	     -5.20582964	     -3.54497809	      9.53153579	      1.65658178	      0.02891281	      9.32081846	    -12.61926514	     -7.49994783	     -5.56883906	      0.95566375	      7.61153550	      0.52685293	      0.00919532	      4.97908316	    -14.57848519	     -7.49994783	    -19.18823011	     -0.84042130	      5.30605234	     11.15350067	     -4.43736008	     20.59762575	     26.68113366	     87.99521195	     10.42034158	     -6.73008640	     10.24240117	     26.35551805	     88.87563602
      0.04583330	      3.43398096	      0.24485094	     -4.95170521	     -0.97571022	      1.31731527	     -0.10851114	     -5.12015104	     -3.50542309	      9.79384987	      1.65742766	      0.02892757	      8.88585495	    -13.28035384	     -7.49997501	     -5.49585509	      0.91915988	      8.02935441	      0.51649319	      0.00901451	      4.46255717	    -15.37153832	     -7.49997501	    -19.05443945	     -0.88763925	      5.28733034	     11.02707963	     -4.66361436	     21.56029512	     26.95524447	     89.21153246	     10.38486021	     -6.90612169	     10.95163031	     26.39554833	     90.74009309
      0.05000000	      3.39755324	      0.27116171	     -4.94529513	     -0.97556941	      1.31739796	     -0.10813535	     -5.07615226	     -3.49517770	      9.93795674	      1.66818530	      0.02911533	      8.69523455	    -13.63038186	     -7.49998471	     -5.48907515	      0.89889643	      8.03905647	      0.50676163	      0.00884466	      4.21350924	    -15.69173519	     -7.49998471	    -18.96950071	     -0.95010024	      5.29413439	     10.85646561	     -4.62703920	     21.13190243	     27.06652790	     90.26869867	     10.31098791	     -6.88122884	     10.46192475	     26.40795314	     91.93979962
      0.05416670	      3.39378680	      0.27288920	     -4.93882185	     -0.97636115	      1.31792729	     -0.10739065	     -5.04376598	     -3.43202257	      9.89625573	      1.66111423	      0.02899191	      8.68580717	    -13.65879981	     -7.49998472	     -5.49972597	      0.86305697	      8.02383407	      0.49690553	      0.00867264	      4.19957619	    -15.70383877	     -7.49998472	    -18.98972653	     -1.00200461	      5.27359663	     10.80927295	     -4.63372662	     21.13619976	     27.05701998	     90.27138407	     10.27674682	     -6.88787583	     10.46544898	     26.38680177	     91.94250712
